<svg width="40" height="48" viewBox="0 0 40 48" xmlns="http://www.w3.org/2000/svg">
  <!-- Drop shadow -->
  <filter id="ds" x="-20%" y="-20%" width="140%" height="140%">
    <feDropShadow dx="0" dy="2" stdDeviation="1.5" flood-color="#000" flood-opacity="0.35"/>
  </filter>
  <!-- Pin body -->
  <path d="M20 1 C9.5 1 1 9.5 1 20 C1 31 20 47 20 47 C20 47 39 31 39 20 C39 9.5 30.5 1 20 1 Z"
        fill="#dc2626" stroke="#7f1d1d" stroke-width="1.5" filter="url(#ds)"/>
  <!-- Horns -->
  <path d="M11.5 9 L8 2 L17 9 Z" fill="#7f1d1d"/>
  <path d="M28.5 9 L32 2 L23 9 Z" fill="#7f1d1d"/>
  <!-- Face -->
  <circle cx="20" cy="19" r="9" fill="#fef2f2"/>
  <!-- Eyes -->
  <circle cx="16.5" cy="17.5" r="1.6" fill="#dc2626"/>
  <circle cx="23.5" cy="17.5" r="1.6" fill="#dc2626"/>
  <!-- Jagged grin -->
  <path d="M14.5 22 L16.5 24 L18.5 22 L20.5 24 L22.5 22 L24.5 24 L26 22"
        fill="none" stroke="#7f1d1d" stroke-width="1.6" stroke-linecap="round" stroke-linejoin="round"/>
</svg>
