<svg width="40" height="48" viewBox="0 0 40 48" xmlns="http://www.w3.org/2000/svg">
  <defs>
    <filter id="ds-kpop" x="-20%" y="-20%" width="140%" height="140%">
      <feDropShadow dx="0" dy="2" stdDeviation="1.5" flood-color="#000" flood-opacity="0.35"/>
    </filter>
  </defs>
  <path d="M20 1 C9.5 1 1 9.5 1 20 C1 31 20 47 20 47 C20 47 39 31 39 20 C39 9.5 30.5 1 20 1 Z"
        fill="#1e3a8a" stroke="#172554" stroke-width="1.5" filter="url(#ds-kpop)"/>
  <circle cx="20" cy="18" r="9" fill="#ffffff" stroke="#172554" stroke-width="1"/>
  <!-- Yin-yang / taegeuk (yberlee.com style two lobes) -->
  <path fill="#cd2126" d="M20 9a9 9 0 0 1 0 18 4.5 4.5 0 0 0 0-9 4.5 4.5 0 0 1 0-9z"/>
  <path fill="#0047a8" d="M20 27a9 9 0 0 1 0-18 4.5 4.5 0 0 1 0 9 4.5 4.5 0 0 0 0 9z"/>
  <circle cx="20" cy="13.5" r="1.35" fill="#0047a8"/>
  <circle cx="20" cy="22.5" r="1.35" fill="#cd2126"/>
</svg>
