<svg width="40" height="48" viewBox="0 0 40 48" xmlns="http://www.w3.org/2000/svg">
  <defs>
    <filter id="ds-food" x="-20%" y="-20%" width="140%" height="140%">
      <feDropShadow dx="0" dy="2" stdDeviation="1.5" flood-color="#000" flood-opacity="0.35"/>
    </filter>
  </defs>
  <path d="M20 1 C9.5 1 1 9.5 1 20 C1 31 20 47 20 47 C20 47 39 31 39 20 C39 9.5 30.5 1 20 1 Z"
        fill="#ea580c" stroke="#9a3412" stroke-width="1.5" filter="url(#ds-food)"/>
  <circle cx="20" cy="18" r="9" fill="#fff7ed" stroke="#9a3412" stroke-width="1"/>
  <!-- fork -->
  <path d="M15 12v8M14 12h2M15 12v-1.5M16 12v-1.5" stroke="#9a3412" stroke-width="1.2" stroke-linecap="round"/>
  <!-- spoon -->
  <path d="M24 11.5c0 1.2-.8 2-1.5 2.2V20M22.5 11.5c0 1.2.8 2 1.5 2.2V20" stroke="#9a3412" stroke-width="1.1" stroke-linecap="round" fill="none"/>
  <ellipse cx="24" cy="11" rx="1.4" ry="1.8" fill="none" stroke="#9a3412" stroke-width="1.1"/>
</svg>
